{"title":"The.Hangover.Part.III.2013.HDrip.720p.AC3.[KSTE]","uid":9019455,"size":1408430347,"categoryP":"video","categoryS":"hd___movies","magnet":"?xt=urn:btih:64242fa2f14076456c29e531c6d4ff349636e9ff&amp;dn=The.Hangover.Part.III.2013.HDrip.720p.AC3.%5BKSTE%5D&amp;tr=udp%3A%2F%2Ftracker.openbittorrent.com%3A80&amp;tr=udp%3A%2F%2Fopen.demonii.com%3A1337&amp;tr=udp%3A%2F%2Ftracker.coppersurfer.tk%3A6969&amp;tr=udp%3A%2F%2Fexodus.desync.com%3A6969","seeders":10,"leechers":0,"uploader":"jessketeer","files":-1,"time":1381266397,"description":"\nVIETNAMESE HARDCODED SUB!\nVIETNAMESE HARDCODED SUB!\nVIETNAMESE HARDCODED SUB!\nVIETNAMESE HARDCODED SUB!\nVIETNAMESE HARDCODED SUB!\nVIETNAMESE HARDCODED SUB!\n &lt;a href=&quot;\nhttp://i.imgur.com/HSEsmRO.jpg&quot; rel=&quot;nofollow&quot; target=&quot;_NEW&quot;&gt;\nhttp://i.imgur.com/HSEsmRO.jpg&lt;/a&gt; &lt;a href=&quot;\nhttp://i.imgur.com/HSEsmRO.jpg&quot; rel=&quot;nofollow&quot; target=&quot;_NEW&quot;&gt;\nhttp://i.imgur.com/HSEsmRO.jpg&lt;/a&gt; &lt;a href=&quot;\nhttp://i.imgur.com/HSEsmRO.jpg&quot; rel=&quot;nofollow&quot; target=&quot;_NEW&quot;&gt;\nhttp://i.imgur.com/HSEsmRO.jpg&lt;/a&gt;\n\n\nFormat                                   : Matroska\nFormat version                           : Version 2\nFile size                                : 1.31 GiB\nDuration                                 : 1h 40mn\nOverall bit rate                         : 1 870 Kbps\nWriting application                      : Lavf54.59.106\nWriting library                          : Lavf54.59.106\n\nVideo\nID                                       : 1\nFormat                                   : AVC\nFormat/Info                              : Advanced Video Codec\nFormat profile                           : &lt;a class=&quot;__cf_email__&quot; href=&quot;/cdn-cgi/l/email-protection&quot; data-cfemail=&quot;82caebe5eac2ceb7acb3&quot;&gt;[email&amp;#160;protected]&lt;/a&gt;&lt;script cf-hash='f9e31' type=&quot;text/javascript&quot;&gt;\n/* &lt;![CDATA[ */!function(){try{var t=&quot;currentScript&quot;in document?document.currentScript:function(){for(var t=document.getElementsByTagName(&quot;script&quot;),e=t.length;e--;)if(t[e].getAttribute(&quot;cf-hash&quot;))return t[e]}();if(t&amp;&amp;t.previousSibling){var e,r,n,i,c=t.previousSibling,a=c.getAttribute(&quot;data-cfemail&quot;);if(a){for(e=&quot;&quot;,r=parseInt(a.substr(0,2),16),n=2;a.length-n;n+=2)i=parseInt(a.substr(n,2),16)^r,e+=String.fromCharCode(i);e=document.createTextNode(e),c.parentNode.replaceChild(e,c)}}}catch(u){}}();/* ]]&gt; */&lt;/script&gt;\nFormat settings, CABAC                   : Yes\nFormat settings, ReFrames                : 4 frames\nCodec ID                                 : V_MPEG4/ISO/AVC\nDuration                                 : 1h 40mn\nBit rate                                 : 1 513 Kbps\nNominal bit rate                         : 6 433 Kbps\nWidth                                    : 1 280 pixels\nHeight                                   : 528 pixels\nDisplay aspect ratio                     : 2.40:1\nOriginal display aspect ratio            : 2.40:1\nFrame rate mode                          : Constant\nFrame rate                               : 29.970 fps\nColor space                              : YUV\nChroma subsampling                       : 4:2:0\nBit depth                                : 8 bits\nScan type                                : Progressive\nBits/(Pixel*Frame)                       : 0.075\nStream size                              : 1.06 GiB (81%)\nWriting library                          : x264 core 133 r2334 a3ac64b\n\nForced                                   : No\n\nAudio\nID                                       : 2\nFormat                                   : AC-3\nFormat/Info                              : Audio Coding 3\nMode extension                           : CM (complete main)\nFormat settings, Endianness              : Big\nCodec ID                                 : A_AC3\nDuration                                 : 1h 40mn\nBit rate mode                            : Constant\nBit rate                                 : 320 Kbps\nChannel(s)                               : 2 channels\nChannel positions                        : Front: L R\nSampling rate                            : 48.0 KHz\nBit depth                                : 16 bits\nCompression mode                         : Lossy\nStream size                              : 230 MiB (17%)\nDefault                                  : Yes\nForced                                   : No\n\n","torrent":{"xt":"urn:btih:64242fa2f14076456c29e531c6d4ff349636e9ff","amp;dn":"The.Hangover.Part.III.2013.HDrip.720p.AC3.%5BKSTE%5D","amp;tr":["udp%3A%2F%2Ftracker.openbittorrent.com%3A80","udp%3A%2F%2Fopen.demonii.com%3A1337","udp%3A%2F%2Ftracker.coppersurfer.tk%3A6969","udp%3A%2F%2Fexodus.desync.com%3A6969"],"infoHash":"64242fa2f14076456c29e531c6d4ff349636e9ff","infoHashBuffer":{"type":"Buffer","data":[100,36,47,162,241,64,118,69,108,41,229,49,198,212,255,52,150,54,233,255]},"announce":[],"urlList":[]}}